PathFileType	4	(X/Y/Z)	10_1_tpose_p1_0-207_filt_butterworth.trc
DataRate	CameraRate	NumFrames	NumMarkers	Units	OrigDataRate	OrigDataStartFrame	OrigNumFrames
60.0	60.0	6	27	m	60.0	0	207
Frame#	Time	RHip			RKnee			RAnkle			RBigToe			RSmallToe			RHeel			LHip			LKnee			LAnkle			LBigToe			LSmallToe			LHeel			Neck			Head			Nose			RShoulder			RElbow			RWrist			RThumb			RIndex			RPinky			LShoulder			LElbow			LWrist			LThumb			LIndex			LPinky			
		X1	Y1	Z1	X2	Y2	Z2	X3	Y3	Z3	X4	Y4	Z4	X5	Y5	Z5	X6	Y6	Z6	X7	Y7	Z7	X8	Y8	Z8	X9	Y9	Z9	X10	Y10	Z10	X11	Y11	Z11	X12	Y12	Z12	X13	Y13	Z13	X14	Y14	Z14	X15	Y15	Z15	X16	Y16	Z16	X17	Y17	Z17	X18	Y18	Z18	X19	Y19	Z19	X20	Y20	Z20	X21	Y21	Z21	X22	Y22	Z22	X23	Y23	Z23	X24	Y24	Z24	X25	Y25	Z25	X26	Y26	Z26	X27	Y27	Z27	
0	0.0	0.29795017093164683	0.5133796351318233	0.9479401691963679	0.3175412232641578	0.652231113627309	1.3907133449745206	0.31082030074596745	0.778365638802621	1.781999366431719	0.28130192222883293	0.6204262544775511	1.864105102382092	0.3591444221998009	0.6538880210400633	1.85964648339347	0.26982049372144623	0.8727122355131315	1.8521977921649522	0.1164560406063299	0.46009235141954224	0.9334997368102967	0.07184515251156053	0.6232851523196721	1.3651595300148645	0.0696170255726428	0.7472523016956433	1.776393298714928	0.11702385501167231	0.6032738979600323	1.8758954523801847	0.050131057641605435	0.618863117477796	1.8452616426696025	0.08738324921272617	0.8331819939716021	1.841403672539177	0.1987870540530673	0.4050813399722792	0.42237272238461476	0.2182086449702517	0.285077141297207	0.20687587661836748	0.22977965819829343	0.2705759546447816	0.32633554072720483	0.35124182672518267	0.41500372069098257	0.4651010947714995	0.6023529868762288	0.5275783737376406	0.4493263480057425	0.8383118864280265	0.593660284397469	0.4256913876851902	0.9799782762607095	0.6208198311225623	0.40997750938670363	0.9974950488431369	0.658285227618717	0.4001283078812802	0.951939746458867	0.6408833775991454	0.4331867874974645	0.05875488764574167	0.4062640153025124	0.47000908768429084	-0.21264409367872472	0.41934882337918067	0.44959806529833457	-0.4605378142097787	0.4572467340902049	0.43601767279628506	-0.5454889999606316	0.47885094332974104	0.4370335573405869	-0.5655674448264096	0.457854352428835	0.4350865699239167	-0.5584965288831019	0.4349712890800206	0.4330699545187826
1	0.0166666666666666	0.295692387848796	0.5129919996734091	0.945291336102441	0.3174435378157192	0.6523632379706056	1.390495624014775	0.3101878568483374	0.7782470522974474	1.7778836369288338	0.2815568383275031	0.6215596551807695	1.8660622656825336	0.3564366063859577	0.6642430873632568	1.8642633343380226	0.2691351985221023	0.872571679025865	1.8486287516269253	0.11423077604683807	0.4593273590642313	0.9313000662104605	0.07189682224794697	0.6234217913161122	1.3649542484413109	0.07138563999127534	0.7490292835202713	1.775656134937817	0.10928377418811056	0.6176741048501075	1.8818483617986779	0.05030379685525777	0.6185484425472516	1.8462139627487875	0.08882410876372522	0.8310396307667204	1.8378684941552212	0.19870412018993905	0.4048313158376432	0.42198208727852704	0.21818225561560387	0.28508518413839784	0.2068385526276508	0.22964814075933276	0.2696315814906837	0.32644244167476955	0.3494489952438566	0.4077408107326205	0.46562396241988147	0.6026749596379157	0.5240194977900978	0.44918259966268786	0.8394069080670007	0.6005920831640387	0.4244176936916929	0.9837228698337577	0.6382151068676292	0.41280978857680367	0.9966510227875429	0.672002047399626	0.40432277961841934	0.9466558499596994	0.6426956595732937	0.43790585283275135	0.05780961836792289	0.40505860934466	0.4702269067606914	-0.21230129252057414	0.4243509326736408	0.44859556400431866	-0.4565039017415141	0.46086778347950164	0.4357235895055299	-0.5446218601774996	0.4640243621191718	0.4376294662196921	-0.5597291391477719	0.45175726683315554	0.42833994822645416	-0.5539035320895344	0.4446304855619419	0.43204510295735243
2	0.0333333333333333	0.295605188836316	0.5114289627929466	0.9433735484702656	0.31739346051269735	0.6524271479044558	1.3903694284503278	0.30985799079396315	0.7783496090300623	1.775764295824545	0.2816826044153105	0.6220735891911235	1.8670559019960042	0.35482606223634655	0.6704679215236373	1.8671025505589947	0.2687888378318254	0.8726779470489584	1.846831762309534	0.11355834211537154	0.45891253334833165	0.9299053062916236	0.0719336614950362	0.6235020921668397	1.3648034497417334	0.07303956840373342	0.750402901440831	1.7750321495365664	0.10487973645225745	0.6281327770635526	1.8858551769840286	0.05040220363202991	0.6184914637728254	1.846695981948368	0.08993832404043374	0.8301066566975037	1.834991201234775	0.19861725445812686	0.40427561869168444	0.42106324524706346	0.21814921120288155	0.28504125722732737	0.2068309925278803	0.2293315360294697	0.2673269688826049	0.32671431957435537	0.34838201014113085	0.4033656041453403	0.4659263640154254	0.6017446852307574	0.5234194632484083	0.44843252734291356	0.8381332013015046	0.6100040285557599	0.42387844340868897	0.9846778420955655	0.6542978311032288	0.4162748826277648	0.9954562836863793	0.6844663482785609	0.40850720615894875	0.9412291489525246	0.6477883034653416	0.4424246000947735	0.05791953748546224	0.4050038845416579	0.4702530699588822	-0.21190411779996415	0.4322632915186451	0.4465758769896466	-0.45410881511621937	0.46996781150176276	0.43506427922685753	-0.544366282024374	0.4646733565249048	0.43665165696879976	-0.554929585892338	0.45745882779288305	0.4222231075040779	-0.5505874514722464	0.4582622228788515	0.4300722430776584
3	0.05	0.2978069297275852	0.5080437192979648	0.9423887878267891	0.3173860761434415	0.6524350888806779	1.3903640817765326	0.30986896184224527	0.7787542230625918	1.7757360767124677	0.28163184861088586	0.6217874374214747	1.8667660033617635	0.35439487570202516	0.6721971707771667	1.86798297587932	0.26881561310396357	0.8731024533476717	1.8469664117509286	0.11438585729207618	0.4590917419569154	0.9294889941347118	0.07192802185513714	0.6235188893444581	1.3646300092467005	0.07418070760666517	0.7508763441200669	1.7742574104482138	0.10388155458377943	0.6331679316571972	1.8876875416022083	0.05038271861652481	0.6187627693007914	1.8465076546853763	0.09080078178929045	0.8309011144768575	1.8331541576295247	0.19854786144810657	0.40347631159272895	0.419755628929168	0.21810982227185	0.28494691908703823	0.20685454170419484	0.2287310881681694	0.26381448661205026	0.32712950096805654	0.34798166401162883	0.4020807500017638	0.46600547835786554	0.5998808359165393	0.5247193860115129	0.44726248409319846	0.8346668707187725	0.619763490262967	0.4238876162976419	0.9827559696347716	0.6677750940378124	0.41948642180188495	0.9938463677582557	0.6941231423301412	0.4116090241146031	0.936959926253965	0.6557682680385084	0.4455689937256929	0.05892843172732497	0.40668116919759034	0.46994620594142456	-0.21155605551679713	0.44321306254875403	0.4434565017953955	-0.45345224378599813	0.4872041439577008	0.4335049630186914	-0.544599496754604	0.4846927773052273	0.4339619052114468	-0.5521375436630621	0.4797322891289469	0.41681961048490584	-0.5490294770441031	0.47857229871856066	0.4264210469984433
4	0.0666666666666666	0.30058825543280965	0.5038787802093587	0.9422238745424172	0.317389994698426	0.652447471147388	1.3904680133686589	0.3100749123558928	0.7794000322985191	1.7764377287823796	0.2814989296759164	0.6211405271610326	1.865817865854443	0.35452886989014987	0.6716653489225218	1.8678155847525435	0.2690447900166003	0.8737673839687846	1.8481238579979946	0.11550103354330156	0.4598552370078797	0.9299209033188224	0.07185477008345138	0.6235240265457975	1.3642154997230749	0.07462046535972164	0.7501622176333258	1.7733789553730048	0.1043171065539598	0.6341021894186426	1.8878830292510123	0.05028212050841269	0.6191719437918051	1.8459840178918752	0.0911759190773484	0.8318454377192299	1.8322399216058596	0.19853883936227829	0.40280887356058487	0.418767874889382	0.21807168032364466	0.2848555632054867	0.20688596604684156	0.22748596959772144	0.2599294422213326	0.3275895785362947	0.3475471575083915	0.40217178354428484	0.4660088616977374	0.5980264201814252	0.5256446873160123	0.4463397789458033	0.8311456167770357	0.625964431275023	0.42373374842115763	0.9799090815142454	0.676331114324333	0.42065249381183917	0.9921062499893287	0.6995448965068222	0.4126874907474074	0.9346731723633033	0.6633837564988889	0.44702639979368036	0.06000204585280594	0.4100547419679262	0.469191361763161	-0.21139039702929818	0.4538235474952782	0.4401753715152425	-0.4535502284235146	0.5081147805993765	0.43060586814740853	-0.5447120128152039	0.5129689370428581	0.430168804899317	-0.5511956963212057	0.5108564595772311	0.4114432292911947	-0.5488567806013553	0.5026247779204138	0.42062669215326265
5	0.0833333333333333	0.30240771791472043	0.5010258643357176	0.9427134579731666	0.31739308330113786	0.6524793695952796	1.3906194511507142	0.3103104014908564	0.779972825404661	1.776411812125437	0.2813967178371402	0.6206518355862598	1.864987303974121	0.3547091682822316	0.6708026189339785	1.8673901028398092	0.26927194880117333	0.8743814951961412	1.8492546645552812	0.11606513099112235	0.4609468690340899	0.9311212847987854	0.07174051659713235	0.6236055046898759	1.363385203187095	0.0745120258359197	0.7487875592457898	1.7729575111995215	0.10474902352200484	0.6331197043528354	1.8862173826495283	0.05017977930982971	0.6194975190956619	1.8455702810768082	0.09050120280316615	0.8312655120917164	1.832145074138873	0.19861307317244295	0.4025923190433476	0.4186936339691988	0.2180509144685316	0.28484441689363227	0.20689887186281547	0.22483940226683813	0.2555287304216272	0.32815029785658795	0.34650251658701847	0.40215314753120684	0.46605141118183596	0.5963170837067291	0.5260010954106916	0.44596591419077425	0.8291633756663546	0.6276797633120098	0.42290279864056507	0.9780050765684296	0.6797941141437758	0.41912995832938316	0.9905421094953776	0.7011881612227615	0.41206338762681405	0.9336167491251239	0.6688745853403921	0.4482895364689157	0.06059902347892397	0.4139705616104885	0.46801193283350595	-0.21144466249324712	0.4601587869027679	0.43765248901584997	-0.45359444476649435	0.5231895262665724	0.4262763916356034	-0.5443775010053902	0.5333666291543507	0.42528044903748424	-0.5509024163419205	0.5357086990686485	0.405094302157108	-0.5491735310888015	0.5215707443372337	0.4122527279018323
